<?xml version="1.0" encoding="utf-8"?>
<!-- Generator: Adobe Illustrator 17.0.0, SVG Export Plug-In . SVG Version: 6.00 Build 0)  -->
<!DOCTYPE svg PUBLIC "-//W3C//DTD SVG 1.1//EN" "http://www.w3.org/Graphics/SVG/1.1/DTD/svg11.dtd">
<svg version="1.1" id="Layer_2" xmlns="http://www.w3.org/2000/svg" xmlns:xlink="http://www.w3.org/1999/xlink" x="0px" y="0px"
	 width="405px" height="200px" viewBox="0 0 405 200" enable-background="new 0 0 405 200" xml:space="preserve">
<g>
	<path fill="#7EC479" d="M70.791,169.804c-7.015,2.214-14.993,1.351-21.253-2.559c-12.413-7.712-24.847-15.403-37.281-23.079
		c-4.794-2.911-8.316-7.798-9.646-13.232c-0.812-3.436-0.575-6.993-0.589-10.494c0-13.175,0-26.349-0.007-39.524
		c-0.058-7.238,3.781-14.382,9.947-18.199C24.526,54.934,37.111,47.186,49.66,39.38c3.551-2.214,7.676-3.328,11.816-3.716
		l3.838-0.106c4.14,0.388,8.266,1.502,11.816,3.716c12.549,7.806,25.135,15.554,37.698,23.338
		c6.167,3.817,10.005,10.961,9.947,18.199c-0.007,13.175-0.007,26.349-0.007,39.524c-0.014,3.5,0.223,7.058-0.589,10.494
		c-1.33,5.434-4.852,10.321-9.646,13.232C102.1,151.737,78.748,167.195,70.791,169.804z"/>
	<path fill="#FFFFFF" d="M62.069,130.651c1.48,2.749,2.701,2.171,4.661,2.622c2.491,0.264,4.54,1.778,6.408,3.38
		c-2.314-0.447-4.629-1.069-7.033-1.602c1.604,1.957,3.028,4.009,3.829,6.409c-2.938-1.693-7.111-5.786-8.542-6.229
		c-0.82-0.248-3.082,0.057-4.151,3.402c-1.698-2.076,1.83-4.916,1.295-8.837c-0.088-2.402-1.525-3.331-2.274-5.902
		c-1.473-1.358-3.623-1.473-5.434-2.148c-3.171,3.621-6.533,8.399-3.888,13.31c1.882,3.488,3.436,2.759,5.924,3.325
		c3.171,0.337,5.773,2.263,8.151,4.298c-2.943-0.564-5.885-1.354-8.943-2.035c2.037,2.49,3.849,5.091,4.867,8.151
		c-3.734-2.151-6.905-5.435-10.865-7.136c-3.733-0.108-5.886,3.396-8.489,5.327c0.451-4.871,5.547-8.036,4.866-13.016
		c-0.111-3.06-0.34-7.022-3.848-8.151c-6.339-2.601-11.884-7.692-14.148-14.26c-2.83-8.262-2.376-17.884,2.038-25.578l0,0
		C32.153,75.91,44.15,71.268,55.242,70.023c12.45-0.453,23.312,7.017,33.386,13.468c3.738,0.566,8.152-0.451,10.981,2.829
		c3.961,3.735,2.942,9.507,2.942,14.373c3.621,9.963,9.619,19.354,10.184,30.106c-1.13-0.792-2.039-1.812-2.376-3.171
		c-3.281-8.825-6.339-18.556-14.373-24.105c-5.319-3.28-11.431,0.341-17.091,0.224c-4.752,0-8.375,3.396-12.225,5.548
		c-0.226,4.868-1.922,9.396-4.865,13.127C61.807,122.422,59.987,126.795,62.069,130.651z"/>
</g>
<g>
	<path fill="#3B3B3B" d="M135.948,59.394c0-3.272,2.573-5.842,5.845-5.842c3.272,0,5.842,2.57,5.842,5.842v75.968
		c0,3.272-2.57,5.842-5.842,5.842c-3.272,0-5.845-2.57-5.845-5.842V59.394z"/>
	<path fill="#3B3B3B" d="M174.79,135.479l-22.089-44.295c-1.402-2.803-0.233-6.311,2.689-7.829c2.803-1.402,6.308-0.233,7.829,2.687
		l18.115,36.23l18.115-36.346c1.518-2.803,5.026-3.972,7.946-2.57c2.806,1.518,3.974,5.026,2.573,7.946l-31.44,62.993
		c-5.023,9.7-14.607,16.128-26.177,16.128c-3.272,0-5.845-2.57-5.845-5.842c0-3.272,2.573-5.845,5.845-5.845
		c6.311,0,12.739-4.088,15.192-8.648L174.79,135.479z"/>
	<path fill="#3B3B3B" d="M226.471,135.362c0,3.272-2.573,5.842-5.845,5.842c-3.272,0-5.842-2.57-5.842-5.842V71.081
		c0-9.7,7.829-17.529,17.529-17.529c4.793,0,9.234,1.987,12.389,5.143c2.337,2.337,2.337,6.075,0,8.298
		c-2.22,2.337-5.962,2.337-8.298,0c-1.168-1.171-2.57-1.754-4.091-1.754c-3.272,0-5.842,2.687-5.842,5.842v11.687h13.791
		c3.272,0,5.842,2.573,5.842,5.845c0,3.272-2.57,5.842-5.842,5.842h-13.791V135.362z"/>
	<path fill="#3B3B3B" d="M250.571,65.239c0-3.272,2.573-5.845,5.845-5.845c3.272,0,5.842,2.573,5.842,5.845v17.529h9.35
		c3.272,0,5.842,2.573,5.842,5.845c0,3.272-2.57,5.842-5.842,5.842h-9.35v29.219c0,3.156,2.573,5.842,5.845,5.842
		c1.518,0,2.92-0.583,4.088-1.754c2.34-2.337,6.078-2.337,8.298,0c2.337,2.223,2.337,5.962,0,8.298
		c-3.156,3.156-7.596,5.143-12.387,5.143c-9.7,0-17.532-7.829-17.532-17.529V65.239z"/>
	<path fill="#3B3B3B" d="M296.179,117.83c2.337,6.897,8.881,11.687,16.48,11.687c4.79,0,9.231-1.987,12.387-5.143
		c2.22-2.22,5.962-2.22,8.298,0c2.22,2.337,2.22,5.962,0,8.298c-5.492,5.259-12.622,8.532-20.685,8.532
		c-16.247,0-29.219-12.972-29.219-29.216c0-16.247,12.972-29.219,29.219-29.219c16.244,0,29.217,12.972,29.217,29.219
		c0,3.156-2.57,5.842-5.845,5.842H296.179z M329.137,106.143c-2.337-6.894-8.881-11.687-16.477-11.687
		c-7.599,0-14.143,4.793-16.597,11.687H329.137z"/>
	<path fill="#3B3B3B" d="M346.564,88.613c0-3.272,2.573-5.845,5.845-5.845c3.272,0,5.842,2.573,5.842,5.845
		c5.026-3.625,10.985-5.845,17.532-5.845c16.244,0,29.216,12.972,29.216,29.219v23.374c0,3.272-2.57,5.842-5.845,5.842
		c-3.272,0-5.842-2.57-5.842-5.842v-23.374c0-9.7-7.829-17.532-17.529-17.532s-17.532,7.832-17.532,17.532v23.374
		c0,3.272-2.57,5.842-5.842,5.842c-3.272,0-5.845-2.57-5.845-5.842V88.613z"/>
</g>
</svg>
